<svg width="312" height="313" viewBox="0 0 312 313" fill="none" xmlns="http://www.w3.org/2000/svg">
<g filter="url(#filter0_d_42_376)">
<path fill-rule="evenodd" clip-rule="evenodd" d="M7.7604 37.2133C28.4908 25.6181 157.717 -40.3333 289.358 37.1232C291.168 38.1884 292.302 40.0398 292.243 42.1394C292.005 50.5773 290.826 74.6231 284.963 105.175C284.277 108.748 280.557 110.837 277.13 109.616L257.446 102.607C254.439 101.536 252.772 98.2974 253.495 95.1888C255.102 88.2854 257.552 75.5707 257.921 60.9674C257.978 58.6966 256.744 56.6514 254.664 55.7384C236.947 47.9613 150.206 14.5553 48.675 55.5778C46.262 56.5528 44.7603 58.9947 45.0392 61.5822C46.1494 71.8853 49.5152 98.9398 56.5295 124.521C57.4598 127.914 61.1266 129.748 64.4795 128.684C86.9869 121.537 168.993 100.949 270.89 140.575C273.759 141.691 275.315 144.84 274.408 147.782C256.669 205.374 221.342 270.121 150.994 299.612C150.387 299.866 149.722 300 149.064 300C148.113 300 147.166 299.722 146.365 299.21C103.781 271.983 74.0082 236.904 53.1936 201.37C52.9554 200.963 53.1968 200.443 53.6408 200.285V200.285L76.3458 192.2C79.0601 191.233 82.0712 192.299 83.6264 194.725C91.6394 207.222 117.395 244.458 150.236 262.171C150.765 262.457 151.356 262.601 151.957 262.601C152.641 262.601 153.282 262.43 153.857 262.059C160.981 257.448 210.842 223.647 231.667 167.916C232.73 165.07 231.41 161.965 228.568 160.89C209.555 153.697 136.597 131.645 39.2104 171.777V171.777C38.5903 172.009 37.8343 171.802 37.5597 171.199C10.2261 111.233 5.72562 56.0373 5.00814 42.198C4.89818 40.077 5.9068 38.2501 7.7604 37.2133Z" fill="#EE7306" fill-opacity="0.9"/>
<path fill-rule="evenodd" clip-rule="evenodd" d="M20.5131 37.2133C41.2435 25.6181 170.469 -40.3333 302.111 37.1232C303.921 38.1884 305.054 40.0398 304.995 42.1394C304.758 50.5773 303.579 74.6231 297.715 105.175C297.03 108.748 293.31 110.837 289.883 109.616L270.199 102.607C267.192 101.536 265.524 98.2974 266.248 95.1888C267.855 88.2854 270.304 75.5708 270.674 60.9673C270.731 58.6966 269.497 56.6514 267.417 55.7384C249.699 47.9613 162.959 14.5553 61.4277 55.5778C59.0147 56.5528 57.513 58.9947 57.7918 61.5822C58.9021 71.8853 62.2679 98.9398 69.2822 124.521C70.2125 127.914 73.8793 129.748 77.2322 128.684C99.7396 121.537 181.745 100.949 283.642 140.575C286.512 141.691 288.067 144.84 287.161 147.782C269.421 205.374 234.095 270.121 163.747 299.612C163.14 299.866 162.475 300 161.816 300C160.866 300 159.919 299.722 159.118 299.21C116.534 271.983 86.7608 236.904 65.9463 201.37C65.7081 200.963 65.9495 200.443 66.3935 200.285V200.285L89.0985 192.2C91.8127 191.233 94.8239 192.299 96.3791 194.725C104.392 207.222 130.148 244.458 162.988 262.171C163.518 262.457 164.109 262.601 164.71 262.601C165.394 262.601 166.035 262.43 166.609 262.059C173.733 257.448 223.595 223.647 244.42 167.916C245.483 165.07 244.162 161.965 241.321 160.89C222.308 153.697 149.35 131.645 51.9631 171.777V171.777C51.343 172.009 50.587 171.802 50.3124 171.199C22.9788 111.233 18.4783 56.0373 17.7608 42.198C17.6509 40.077 18.6595 38.2501 20.5131 37.2133Z" fill="url(#paint0_linear_42_376)"/>
</g>
<defs>
<filter id="filter0_d_42_376" x="0" y="0" width="311.998" height="313" filterUnits="userSpaceOnUse" color-interpolation-filters="sRGB">
<feFlood flood-opacity="0" result="BackgroundImageFix"/>
<feColorMatrix in="SourceAlpha" type="matrix" values="0 0 0 0 0 0 0 0 0 0 0 0 0 0 0 0 0 0 127 0" result="hardAlpha"/>
<feOffset dx="1" dy="7"/>
<feGaussianBlur stdDeviation="3"/>
<feComposite in2="hardAlpha" operator="out"/>
<feColorMatrix type="matrix" values="0 0 0 0 0 0 0 0 0 0 0 0 0 0 0 0 0 0 0.35 0"/>
<feBlend mode="normal" in2="BackgroundImageFix" result="effect1_dropShadow_42_376"/>
<feBlend mode="normal" in="SourceGraphic" in2="effect1_dropShadow_42_376" result="shape"/>
</filter>
<linearGradient id="paint0_linear_42_376" x1="96" y1="88" x2="266.539" y2="299.565" gradientUnits="userSpaceOnUse">
<stop stop-color="#241968"/>
<stop offset="1" stop-color="#2D9AE2"/>
</linearGradient>
</defs>
</svg>
